<?xml version="1.0" encoding="UTF-8"?>
<svg xmlns="http://www.w3.org/2000/svg" viewBox="0 0 1200 800" width="1200" height="800">
  <defs>
    <style>
      .swimlane-header { fill: #E20714; font-family: Arial, sans-serif; font-size: 16px; font-weight: bold; fill: white; }
      .swimlane-bg { fill: #F5F5F5; stroke: #666; stroke-width: 2; }
      .process-box { fill: #FFFFFF; stroke: #333; stroke-width: 2; }
      .decision-box { fill: #FFF8DC; stroke: #333; stroke-width: 2; }
      .start-end { fill: #00A859; stroke: #333; stroke-width: 2; }
      .text { font-family: Arial, sans-serif; font-size: 14px; fill: #000; text-anchor: middle; }
      .label { font-family: Arial, sans-serif; font-size: 12px; fill: #666; }
      .arrow { stroke: #333; stroke-width: 2; fill: none; marker-end: url(#arrowhead); }
    </style>
    <marker id="arrowhead" markerWidth="10" markerHeight="10" refX="9" refY="3" orient="auto">
      <polygon points="0 0, 10 3, 0 6" fill="#333" />
    </marker>
  </defs>

  <!-- Title -->
  <text x="600" y="30" style="font-size: 20px; font-weight: bold; text-anchor: middle; fill: #1A1A1A;">Bakım Planlama Süreci - MAN Türkiye</text>

  <!-- Swimlane 1: Bakım Planlayıcı -->
  <rect x="50" y="60" width="1100" height="220" class="swimlane-bg"/>
  <rect x="50" y="60" width="150" height="220" fill="#E20714"/>
  <text x="125" y="175" class="swimlane-header" transform="rotate(-90 125 175)">Bakım Planlayıcı</text>

  <!-- Swimlane 2: Bakım Ekibi -->
  <rect x="50" y="280" width="1100" height="240" class="swimlane-bg"/>
  <rect x="50" y="280" width="150" height="240" fill="#E20714"/>
  <text x="125" y="405" class="swimlane-header" transform="rotate(-90 125 405)">Bakım Ekibi</text>

  <!-- Swimlane 3: Sistem -->
  <rect x="50" y="520" width="1100" height="220" class="swimlane-bg"/>
  <rect x="50" y="520" width="150" height="220" fill="#E20714"/>
  <text x="125" y="635" class="swimlane-header" transform="rotate(-90 125 635)">Sistem</text>

  <!-- Process Steps - Bakım Planlayıcı -->
  <ellipse cx="280" cy="170" rx="60" ry="30" class="start-end"/>
  <text x="280" y="175" class="text">Başla</text>

  <rect x="380" y="140" width="120" height="60" class="process-box"/>
  <text x="440" y="165" class="text">Varlık</text>
  <text x="440" y="185" class="text">Seç</text>

  <rect x="550" y="140" width="120" height="60" class="process-box"/>
  <text x="610" y="165" class="text">Bakım</text>
  <text x="610" y="185" class="text">Tipi Belirle</text>

  <rect x="720" y="140" width="120" height="60" class="process-box"/>
  <text x="780" y="165" class="text">Tarih &amp;</text>
  <text x="780" y="185" class="text">Ekip Ata</text>

  <path d="M 890 170 L 950 140 L 1010 170 L 950 200 Z" class="decision-box"/>
  <text x="950" y="165" class="text" style="font-size: 12px;">Acil?</text>

  <rect x="720" y="230" width="120" height="60" class="process-box"/>
  <text x="780" y="255" class="text">Öncelik:</text>
  <text x="780" y="275" class="text">Normal</text>

  <!-- Process Steps - Bakım Ekibi -->
  <rect x="380" y="360" width="120" height="60" class="process-box"/>
  <text x="440" y="385" class="text">Bakımı</text>
  <text x="440" y="405" class="text">Başlat</text>

  <rect x="550" y="360" width="120" height="60" class="process-box"/>
  <text x="610" y="385" class="text">Bakım</text>
  <text x="610" y="405" class="text">Gerçekleştir</text>

  <path d="M 720 390 L 780 360 L 840 390 L 780 420 Z" class="decision-box"/>
  <text x="780" y="385" class="text" style="font-size: 12px;">Yedek</text>
  <text x="780" y="400" class="text" style="font-size: 12px;">Parça?</text>

  <rect x="890" y="360" width="120" height="60" class="process-box"/>
  <text x="950" y="385" class="text">Parça</text>
  <text x="950" y="405" class="text">Değiştir</text>

  <rect x="720" y="460" width="120" height="60" class="process-box"/>
  <text x="780" y="485" class="text">Bakımı</text>
  <text x="780" y="505" class="text">Kapat</text>

  <!-- Process Steps - Sistem -->
  <rect x="380" y="590" width="120" height="60" class="process-box"/>
  <text x="440" y="615" class="text">Bildirim</text>
  <text x="440" y="635" class="text">Gönder</text>

  <rect x="550" y="590" width="120" height="60" class="process-box"/>
  <text x="610" y="615" class="text">Durum</text>
  <text x="610" y="635" class="text">Güncelle</text>

  <rect x="720" y="590" width="120" height="60" class="process-box"/>
  <text x="780" y="615" class="text">Geçmiş</text>
  <text x="780" y="635" class="text">Kaydet</text>

  <rect x="890" y="590" width="120" height="60" class="process-box"/>
  <text x="950" y="615" class="text">Sonraki</text>
  <text x="950" y="635" class="text">Planla</text>

  <ellipse cx="1070" cy="620" rx="60" ry="30" class="start-end"/>
  <text x="1070" y="625" class="text">Bitir</text>

  <!-- Arrows -->
  <path d="M 340 170 L 380 170" class="arrow"/>
  <path d="M 500 170 L 550 170" class="arrow"/>
  <path d="M 670 170 L 720 170" class="arrow"/>
  <path d="M 840 170 L 890 170" class="arrow"/>
  <path d="M 1010 170 L 1060 170 L 1060 320 L 440 320 L 440 360" class="arrow"/>
  <text x="1030" y="165" class="label">Evet</text>
  <path d="M 950 200 L 950 220 L 780 220 L 780 230" class="arrow"/>
  <text x="860" y="215" class="label">Hayır</text>
  <path d="M 500 390 L 550 390" class="arrow"/>
  <path d="M 670 390 L 720 390" class="arrow"/>
  <path d="M 840 390 L 890 390" class="arrow"/>
  <text x="850" y="380" class="label">Evet</text>
  <path d="M 780 420 L 780 460" class="arrow"/>
  <text x="790" y="445" class="label">Hayır</text>
  <path d="M 950 420 L 950 440 L 780 440 L 780 460" class="arrow"/>
  <path d="M 780 520 L 780 550 L 440 550 L 440 590" class="arrow"/>
  <path d="M 500 620 L 550 620" class="arrow"/>
  <path d="M 670 620 L 720 620" class="arrow"/>
  <path d="M 840 620 L 890 620" class="arrow"/>
  <path d="M 1010 620 L 1070 620" class="arrow"/>
</svg>