<?xml version="1.0" encoding="UTF-8"?>
<svg xmlns="http://www.w3.org/2000/svg" viewBox="0 0 1000 700" width="1000" height="700">
  <defs>
    <style>
      .swimlane-header { fill: #E20714; font-family: Arial, sans-serif; font-size: 16px; font-weight: bold; fill: white; }
      .swimlane-bg { fill: #F5F5F5; stroke: #666; stroke-width: 2; }
      .process-box { fill: #FFFFFF; stroke: #333; stroke-width: 2; }
      .data-box { fill: #E6F3FF; stroke: #0066CC; stroke-width: 2; }
      .start-end { fill: #00A859; stroke: #333; stroke-width: 2; }
      .text { font-family: Arial, sans-serif; font-size: 14px; fill: #000; text-anchor: middle; }
      .arrow { stroke: #333; stroke-width: 2; fill: none; marker-end: url(#arrowhead); }
      .data-arrow { stroke: #0066CC; stroke-width: 2; fill: none; stroke-dasharray: 5,5; }
    </style>
    <marker id="arrowhead" markerWidth="10" markerHeight="10" refX="9" refY="3" orient="auto">
      <polygon points="0 0, 10 3, 0 6" fill="#333" />
    </marker>
  </defs>

  <!-- Title -->
  <text x="500" y="30" style="font-size: 20px; font-weight: bold; text-anchor: middle; fill: #1A1A1A;">Varlık Yönetimi Süreci - MAN Türkiye</text>

  <!-- Swimlane 1: Varlık Yöneticisi -->
  <rect x="50" y="60" width="900" height="280" class="swimlane-bg"/>
  <rect x="50" y="60" width="150" height="280" fill="#E20714"/>
  <text x="125" y="205" class="swimlane-header" transform="rotate(-90 125 205)">Varlık Yöneticisi</text>

  <!-- Swimlane 2: Sistem/Veritabanı -->
  <rect x="50" y="340" width="900" height="300" class="swimlane-bg"/>
  <rect x="50" y="340" width="150" height="300" fill="#E20714"/>
  <text x="125" y="495" class="swimlane-header" transform="rotate(-90 125 495)">Sistem / Veritabanı</text>

  <!-- Process Steps - Varlık Yöneticisi -->
  <ellipse cx="260" cy="200" rx="60" ry="30" class="start-end"/>
  <text x="260" y="205" class="text">Başla</text>

  <rect x="360" y="170" width="120" height="60" class="process-box"/>
  <text x="420" y="195" class="text">Varlık</text>
  <text x="420" y="215" class="text">Bilgilerini Gir</text>

  <rect x="520" y="170" width="120" height="60" class="process-box"/>
  <text x="580" y="195" class="text">SAP ID</text>
  <text x="580" y="215" class="text">Ata</text>

  <rect x="680" y="170" width="120" height="60" class="process-box"/>
  <text x="740" y="195" class="text">Lokasyon &amp;</text>
  <text x="740" y="215" class="text">Sorumlu Ata</text>

  <rect x="360" y="270" width="120" height="60" class="process-box"/>
  <text x="420" y="295" class="text">Bakım</text>
  <text x="420" y="315" class="text">Planla</text>

  <rect x="520" y="270" width="120" height="60" class="process-box"/>
  <text x="580" y="295" class="text">Geçmiş</text>
  <text x="580" y="315" class="text">İzle</text>

  <rect x="680" y="270" width="120" height="60" class="process-box"/>
  <text x="740" y="295" class="text">Rapor</text>
  <text x="740" y="315" class="text">Görüntüle</text>

  <!-- Data Storage -->
  <rect x="260" y="410" width="140" height="80" class="data-box"/>
  <text x="330" y="440" class="text" style="font-size: 12px;">Varlık Ana Bilgileri</text>
  <text x="330" y="460" class="text" style="font-size: 11px;">ID, SAP ID, Ad</text>
  <text x="330" y="475" class="text" style="font-size: 11px;">Model, Seri No</text>

  <rect x="430" y="410" width="140" height="80" class="data-box"/>
  <text x="500" y="440" class="text" style="font-size: 12px;">Lokasyon Bilgileri</text>
  <text x="500" y="460" class="text" style="font-size: 11px;">Tesis, Alan</text>
  <text x="500" y="475" class="text" style="font-size: 11px;">Maliyet Merkezi</text>

  <rect x="600" y="410" width="140" height="80" class="data-box"/>
  <text x="670" y="440" class="text" style="font-size: 12px;">Bakım Bilgileri</text>
  <text x="670" y="460" class="text" style="font-size: 11px;">Son Bakım</text>
  <text x="670" y="475" class="text" style="font-size: 11px;">Sonraki Bakım</text>

  <rect x="770" y="410" width="140" height="80" class="data-box"/>
  <text x="840" y="440" class="text" style="font-size: 12px;">Finansal Bilgiler</text>
  <text x="840" y="460" class="text" style="font-size: 11px;">Satın Alma</text>
  <text x="840" y="475" class="text" style="font-size: 11px;">Defter Değeri</text>

  <rect x="430" y="530" width="140" height="80" class="data-box"/>
  <text x="500" y="560" class="text" style="font-size: 12px;">Durum Bilgileri</text>
  <text x="500" y="580" class="text" style="font-size: 11px;">Aktif/Pasif</text>
  <text x="500" y="595" class="text" style="font-size: 11px;">Çalışma Durumu</text>

  <!-- Arrows -->
  <path d="M 320 200 L 360 200" class="arrow"/>
  <path d="M 480 200 L 520 200" class="arrow"/>
  <path d="M 640 200 L 680 200" class="arrow"/>
  <path d="M 480 300 L 520 300" class="arrow"/>
  <path d="M 640 300 L 680 300" class="arrow"/>

  <!-- Data Flow Arrows -->
  <path d="M 420 230 L 420 360 L 330 360 L 330 410" class="data-arrow"/>
  <path d="M 580 230 L 580 370 L 330 370 L 330 410" class="data-arrow"/>
  <path d="M 740 230 L 740 380 L 500 380 L 500 410" class="data-arrow"/>
  <path d="M 420 330 L 420 390 L 670 390 L 670 410" class="data-arrow"/>
  <path d="M 580 330 L 580 520 L 570 520" class="data-arrow"/>
  <path d="M 740 330 L 740 400 L 840 400 L 840 410" class="data-arrow"/>
</svg>